<?xml version="1.0" standalone="no" ?>
<!DOCTYPE svg PUBLIC "-//W3C//DTD SVG 1.1//EN" "http://www.w3.org/Graphics/SVG/1.1/DTD/svg11.dtd">
<svg width="120px" height="82px" viewBox="0 0 120 82" style="background-color: #ffffffff" xmlns="http://www.w3.org/2000/svg" xmlns:xlink="http://www.w3.org/1999/xlink" version="1.1" >
<text x="0" y="0" stroke="transparent" fill="#000000" transform="matrix(0.05 0 0 0.05 35.9574 13.1326)" style="font:normal normal normal 200px 'Arial'" >
O</text>
<text x="0" y="0" stroke="transparent" fill="#000000" transform="matrix(0.05 0 0 0.05 48.4281 34.7331)" style="font:normal normal normal 200px 'Arial'" >
OH</text>
<text x="0" y="0" stroke="transparent" fill="#000000" transform="matrix(0.05 0 0 0.05 36.2357 56.3336)" style="font:normal normal normal 200px 'Arial'" >
N</text>
<text x="0" y="0" stroke="transparent" fill="#000000" transform="matrix(0.05 0 0 0.05 48.7064 49.1334)" style="font:normal normal normal 200px 'Arial'" >
N</text>
<text x="0" y="0" stroke="transparent" fill="#000000" transform="matrix(0.05 0 0 0.05 98.5891 77.934)" style="font:normal normal normal 200px 'Arial'" >
NH</text>
<text x="0" y="0" stroke="transparent" fill="#000000" transform="matrix(0.05 0 0 0.05 113.032 79.5451)" style="font:normal normal normal 150px 'Arial'" >
2</text>
<path stroke="transparent" fill="#000000" transform="matrix(0.05 0 0 0.05 -374 -179)" d="M 8033.52,4189.24 L 8027.52,4185.77 L 8027.52,4178.85 L 8276.93,4034.84 L 8276.93,4048.7 L 8033.52,4189.24 Z " />
<path stroke="transparent" fill="#000000" transform="matrix(0.05 0 0 0.05 -374 -179)" d="M 8033.52,4470.32 L 8027.52,4473.78 L 8021.52,4470.32 L 8021.52,4189.24 L 8027.52,4185.77 L 8033.52,4189.24 L 8033.52,4470.32 Z " />
<path stroke="transparent" fill="#000000" transform="matrix(0.05 0 0 0.05 -374 -179)" d="M 7778.11,4624.71 L 7778.1,4610.85 L 8021.52,4470.32 L 8027.52,4473.78 L 8027.52,4480.71 L 7778.11,4624.71 Z " />
<path stroke="transparent" fill="#000000" transform="matrix(0.05 0 0 0.05 -374 -179)" d="M 7781.1,4563.12 L 7775.1,4552.73 L 7972.68,4438.65 L 7978.68,4449.05 L 7781.1,4563.12 Z " />
<path stroke="transparent" fill="#000000" transform="matrix(0.05 0 0 0.05 -374 -179)" d="M 7522.6,4477.24 L 7534.6,4470.31 L 7778.1,4610.85 L 7778.11,4624.71 L 7522.6,4477.24 Z " />
<path stroke="transparent" fill="#000000" transform="matrix(0.05 0 0 0.05 -374 -179)" d="M 7522.6,4182.31 L 7534.6,4189.24 L 7534.6,4470.31 L 7522.6,4477.24 L 7522.6,4182.31 Z " />
<path stroke="transparent" fill="#000000" transform="matrix(0.05 0 0 0.05 -374 -179)" d="M 7574.44,4215.71 L 7586.44,4215.71 L 7586.44,4443.84 L 7574.44,4443.84 L 7574.44,4215.71 Z " />
<path stroke="transparent" fill="#000000" transform="matrix(0.05 0 0 0.05 -374 -179)" d="M 7778.11,4034.84 L 7778.1,4048.7 L 7534.6,4189.24 L 7522.6,4182.31 L 7778.11,4034.84 Z " />
<path stroke="transparent" fill="#000000" transform="matrix(0.05 0 0 0.05 -374 -179)" d="M 7778.1,4048.7 L 7778.11,4034.84 L 8027.52,4178.85 L 8027.52,4185.77 L 8021.52,4189.24 L 7778.1,4048.7 Z " />
<path stroke="transparent" fill="#000000" transform="matrix(0.05 0 0 0.05 -374 -179)" d="M 7775.1,4106.82 L 7781.1,4096.43 L 7978.68,4210.51 L 7972.68,4220.9 L 7775.1,4106.82 Z " />
<path stroke="transparent" fill="#000000" transform="matrix(0.05 0 0 0.05 -374 -179)" d="M 8245.01,3876.65 L 8257.01,3876.65 L 8257.01,4056.74 L 8245.01,4056.74 L 8245.01,3876.65 Z " />
<path stroke="transparent" fill="#000000" transform="matrix(0.05 0 0 0.05 -374 -179)" d="M 8296.85,3876.65 L 8308.85,3876.65 L 8308.85,4056.74 L 8296.85,4056.74 L 8296.85,3876.65 Z " />
<path stroke="transparent" fill="#000000" transform="matrix(0.05 0 0 0.05 -374 -179)" d="M 8446.31,4132.64 L 8440.31,4143.03 L 8276.93,4048.7 L 8276.93,4034.84 L 8446.31,4132.64 Z " />
<path stroke="transparent" fill="#000000" transform="matrix(0.05 0 0 0.05 -374 -179)" d="M 8418.6,4529.06 L 8424.6,4539.45 L 8372.84,4569.34 L 8366.84,4558.94 L 8418.6,4529.06 Z " />
<path stroke="transparent" fill="#000000" transform="matrix(0.05 0 0 0.05 -374 -179)" d="M 8392.68,4484.16 L 8398.68,4494.55 L 8346.92,4524.44 L 8340.92,4514.05 L 8392.68,4484.16 Z " />
<path stroke="transparent" fill="#000000" transform="matrix(0.05 0 0 0.05 -374 -179)" d="M 9025.17,4466.85 L 9025.17,4480.71 L 8781.76,4621.25 L 8775.76,4617.78 L 8775.76,4610.85 L 9025.17,4466.85 Z " />
<path stroke="transparent" fill="#000000" transform="matrix(0.05 0 0 0.05 -374 -179)" d="M 9280.58,4614.32 L 9268.58,4621.25 L 9025.17,4480.71 L 9025.17,4466.85 L 9280.58,4614.32 Z " />
<path stroke="transparent" fill="#000000" transform="matrix(0.05 0 0 0.05 -374 -179)" d="M 9225.74,4642.52 L 9219.74,4652.91 L 9022.17,4538.84 L 9028.17,4528.44 L 9225.74,4642.52 Z " />
<path stroke="transparent" fill="#000000" transform="matrix(0.05 0 0 0.05 -374 -179)" d="M 9280.58,4902.32 L 9274.58,4905.79 L 9268.58,4902.32 L 9268.58,4621.25 L 9280.58,4614.32 L 9280.58,4902.32 Z " />
<path stroke="transparent" fill="#000000" transform="matrix(0.05 0 0 0.05 -374 -179)" d="M 9025.17,5056.72 L 9025.17,5042.86 L 9268.58,4902.32 L 9274.58,4905.79 L 9274.58,4912.72 L 9025.17,5056.72 Z " />
<path stroke="transparent" fill="#000000" transform="matrix(0.05 0 0 0.05 -374 -179)" d="M 9028.17,4995.13 L 9022.17,4984.74 L 9219.74,4870.66 L 9225.74,4881.06 L 9028.17,4995.13 Z " />
<path stroke="transparent" fill="#000000" transform="matrix(0.05 0 0 0.05 -374 -179)" d="M 8769.76,4909.25 L 8781.76,4902.32 L 9025.17,5042.86 L 9025.17,5056.72 L 8769.76,4909.25 Z " />
<path stroke="transparent" fill="#000000" transform="matrix(0.05 0 0 0.05 -374 -179)" d="M 8781.76,4902.32 L 8769.76,4909.25 L 8769.76,4621.25 L 8775.76,4617.78 L 8781.76,4621.25 L 8781.76,4902.32 Z " />
<path stroke="transparent" fill="#000000" transform="matrix(0.05 0 0 0.05 -374 -179)" d="M 8833.6,4875.86 L 8821.6,4875.86 L 8821.6,4647.71 L 8833.6,4647.71 L 8833.6,4875.86 Z " />
<path stroke="transparent" fill="#000000" transform="matrix(0.05 0 0 0.05 -374 -179)" d="M 9432.26,4989.9 L 9426.26,5000.29 L 9274.58,4912.72 L 9274.58,4905.79 L 9280.58,4902.32 L 9432.26,4989.9 Z " />
<path stroke="transparent" fill="#000000" transform="matrix(0.05 0 0 0.05 -374 -179)" d="M 8775.76,4610.85 L 8775.76,4617.78 L 8769.76,4621.25 L 8625.83,4538.15 L 8631.83,4527.75 L 8775.76,4610.85 Z " />
<path stroke="transparent" fill="#000000" transform="matrix(0.05 0 0 0.05 -374 -179)" d="M 8185.2,4557.89 L 8179.2,4568.28 L 8027.52,4480.71 L 8027.52,4473.78 L 8033.52,4470.32 L 8185.2,4557.89 Z " />
</svg>
